Coordinates
version=1
nRows=8
nColumns=63
inDegrees=yes

Units are S.I. units (second, meters, Newtons, ...)
If the header above contains a line with 'inDegrees', this indicates whether rotational values are in degrees (yes) or radians (no).

endheader
time	pelvis_tilt	pelvis_list	pelvis_rotation	pelvis_tx	pelvis_ty	pelvis_tz	hip_flexion_r	hip_adduction_r	hip_rotation_r	knee_angle_r	knee_angle_r_beta	ankle_angle_r	subtalar_angle_r	mtp_angle_r	hip_flexion_l	hip_adduction_l	hip_rotation_l	knee_angle_l	knee_angle_l_beta	ankle_angle_l	subtalar_angle_l	mtp_angle_l	L5_S1_Flex_Ext	L5_S1_Lat_Bending	L5_S1_axial_rotation	L4_L5_Flex_Ext	L4_L5_Lat_Bending	L4_L5_axial_rotation	L3_L4_Flex_Ext	L3_L4_Lat_Bending	L3_L4_axial_rotation	L2_L3_Flex_Ext	L2_L3_Lat_Bending	L2_L3_axial_rotation	L1_L2_Flex_Ext	L1_L2_Lat_Bending	L1_L2_axial_rotation	L1_T12_Flex_Ext	L1_T12_Lat_Bending	L1_T12_axial_rotation	Abs_r3	Abs_r2	Abs_r1	Abs_t1	Abs_t2	neck_flexion	neck_bending	neck_rotation	arm_flex_r	arm_add_r	arm_rot_r	elbow_flex_r	pro_sup_r	wrist_flex_r	wrist_dev_r	arm_flex_l	arm_add_l	arm_rot_l	elbow_flex_l	pro_sup_l	wrist_flex_l	wrist_dev_l
      1.25000000	     12.71101817	     -3.13964961	    111.31315756	      0.07368240	      0.58393005	      0.85665086	     15.46057739	      0.30627574	    -22.46361210	     21.49357304	      0.37513362	     33.77398955	      6.74736082	      0.00000000	     18.99729047	      0.72110562	     25.55593502	     19.81894255	      0.34590580	     32.98964112	    -15.55498547	      0.00000000	      0.04816787	      2.06685423	     -1.57538188	      0.08945255	      2.74891613	     -1.67384325	      0.07913499	      5.02534939	     -1.67384325	      0.05505106	      5.02534939	     -1.37845915	      0.04472868	      4.21472916	     -1.27999778	      0.02752312	      3.20155721	     -1.18153641	      0.34405826	     23.38066847	     -8.76180140	      0.00000000	      0.00000000	     23.33987381	    -12.70057884	      9.81444710	     22.53880056	    -18.94859124	    146.11946361	      4.33670422	      3.42158645	    -22.16110335	     -7.08407054	     15.81947998	     15.84978692	    193.85072260	      0.55589426	      5.55786028	    -15.35967149	     -6.96662269
      1.26666667	     10.87488737	     -3.45327449	    109.88198686	      0.07900416	      0.58561723	      0.85519189	     15.90423032	     -1.00990464	    -19.72226353	     22.57111560	      0.39394028	     34.60727137	      5.46253404	      0.00000000	     17.95966787	      1.68660171	     23.69528717	     18.58261225	      0.32432777	     32.40246114	    -15.44353662	      0.00000000	      0.00467224	      1.75679884	     -1.53202771	      0.00867682	      2.33654245	     -1.62777944	      0.00767602	      4.27148069	     -1.62777944	      0.00533990	      4.27148069	     -1.34052424	      0.00433864	      3.58246419	     -1.24477251	      0.00266972	      2.72128140	     -1.14902078	      0.03337335	     19.87325981	     -8.52067849	      0.00000000	      0.00000000	     22.01194822	    -11.16095658	      7.76800171	     23.71621438	    -17.74237871	    133.95662238	      4.74646636	      2.71165805	    -19.68886878	    -11.61402194	     15.41059445	     14.14896091	    191.95770984	      0.53094262	      5.11665745	    -15.10219752	     -7.42091183
      1.28333333	      8.48035425	     -3.73843850	    108.06465559	      0.08634312	      0.58842640	      0.85346970	     16.27854255	     -2.58545699	    -16.35740007	     23.61943814	      0.41223696	     35.32718890	      3.99550406	      0.00000000	     16.51115915	      2.90659158	     21.13690452	     16.73409236	      0.29206501	     31.34429205	    -15.04501217	      0.00000000	     -0.04561325	      1.34134112	     -1.48437553	     -0.08470836	      1.78398369	     -1.57714900	     -0.07493800	      3.26133680	     -1.57714900	     -0.05213138	      3.26133680	     -1.29882859	     -0.04235646	      2.73526282	     -1.20605512	     -0.02606341	      2.07773740	     -1.11328165	     -0.32581086	     15.17351904	     -8.25565138	      0.00000000	      0.00000000	     20.15521802	     -8.81252375	      4.87832499	     25.56106753	    -16.18257013	    120.63029119	      5.57156955	      2.20228860	    -15.82370026	    -15.96866231	     14.95962648	     11.85683091	    190.33615624	      0.49515797	      4.87539822	    -15.30927650	     -7.92421263
      1.30000000	      5.76544519	     -3.82410524	    105.97823376	      0.09528093	      0.59259277	      0.85142640	     16.34926807	     -4.21452740	    -12.84766123	     24.34831563	      0.42495828	     35.77389311	      2.76750062	      0.00000000	     14.65803948	      4.24565302	     18.09541375	     14.41965429	      0.25167044	     29.84535512	    -14.33626992	      0.00000000	     -0.09580446	      0.85192712	     -1.46869431	     -0.17791846	      1.13306307	     -1.56048770	     -0.15739715	      2.07137560	     -1.56048770	     -0.10949492	      2.07137560	     -1.28510752	     -0.08896402	      1.73724978	     -1.19331412	     -0.05474267	      1.31963511	     -1.10152073	     -0.68432169	      9.63716997	     -8.16843712	      0.00000000	      0.00000000	     17.74105202	     -5.56951278	      1.41141147	     28.10874859	    -14.18483163	    110.98858675	      5.96696654	      1.71791539	    -11.46213624	    -18.93835690	     14.37983967	      9.03182286	    188.51825298	      0.45287756	      4.69382288	    -15.95790638	     -8.53764495
      1.31666667	      3.34930933	     -3.61744050	    104.29477887	      0.10446178	      0.59803119	      0.84995746	     15.97401279	     -5.37392454	     -9.43893517	     24.43002479	      0.42638437	     35.53060415	      0.88139730	      0.00000000	     12.84486029	      5.35636442	     14.93045949	     12.30372832	      0.21474057	     28.21080169	    -12.76187034	      0.00000000	     -0.13264709	      0.37770463	     -1.65711244	     -0.24633890	      0.50234716	     -1.76068197	     -0.21792590	      0.91835105	     -1.76068197	     -0.15160235	      0.91835105	     -1.44997339	     -0.12317608	      0.77021529	     -1.34640386	     -0.07579454	      0.58506448	     -1.24283433	     -0.94748487	      4.27267036	     -9.21636226	      0.00000000	      0.00000000	     14.97125188	     -1.65545014	     -1.40413711	     31.59143956	    -11.88582936	    105.44853199	      5.75071216	      1.44567512	     -7.14338003	    -21.16336022	     13.60583639	      5.91318558	    185.93561422	      0.40473395	      4.66017238	    -17.23547927	     -9.27859992
      1.33333333	      1.59734804	     -3.01500734	    102.99229396	      0.11279423	      0.60442937	      0.84980775	     15.05518179	     -5.89868185	     -6.67598008	     23.83237927	      0.41595349	     34.66489535	     -0.87576064	      0.00000000	     11.24746856	      5.92929924	     11.48340421	     10.88907467	      0.19005021	     26.97222633	    -10.06955913	      0.00000000	     -0.18160830	     -0.00829196	     -2.08568110	     -0.33726477	     -0.01102831	     -2.21603616	     -0.29836427	     -0.02016108	     -2.21603616	     -0.20756012	     -0.02016108	     -1.82497096	     -0.16864146	     -0.01690897	     -1.69461589	     -0.10377098	     -0.01284425	     -1.56426082	     -1.29720990	     -0.09380036	    -11.59993255	      0.00000000	      0.00000000	     12.23528016	      2.46895023	     -2.28342524	     35.88973723	     -8.83517223	    105.52686552	      2.70057031	      0.93481948	      0.53331019	    -22.91580487	     12.59336282	      2.84738892	    181.95376626	      0.35993006	      4.83210360	    -19.08282491	    -10.04012951
      1.35000000	      0.80934291	     -2.08232611	    101.98790172	      0.11813457	      0.61033642	      0.85178057	     13.91615216	     -5.84283618	     -5.21223532	     22.98773114	      0.40121160	     33.59809768	     -1.48791375	      0.00000000	     10.06699915	      5.86506699	      8.50950418	     10.39197940	      0.18137426	     26.23460324	     -7.55663299	      0.00000000	     -0.25347455	     -0.23354921	     -2.74050024	     -0.47072758	     -0.31062045	     -2.91178150	     -0.41643333	     -0.56785154	     -2.91178150	     -0.28969606	     -0.56785154	     -2.39793771	     -0.23537646	     -0.47625354	     -2.22665644	     -0.14483536	     -0.36176772	     -2.05537518	     -1.81054334	     -2.64195535	    -15.24184018	      0.00000000	      0.00000000	      9.70323171	      5.99156706	     -0.51238701	     41.84831415	     -7.22943059	    104.03025026	      0.93790649	      0.69462791	     20.18684787	    -24.02542284	     11.30479760	      0.37707436	    176.09482320	      0.32393319	      5.13276779	    -21.70332674	    -11.18719915
      1.36666667	      1.04510414	     -1.40102871	    101.20892598	      0.11947576	      0.61344825	      0.85433622	     13.22033429	     -5.29800426	     -4.92406516	     22.21226330	      0.38767713	     32.93022242	     -0.81203981	      0.00000000	      9.60965852	      5.26427544	      6.85997845	     10.46393300	      0.18263008	     26.13515389	     -6.42700294	      0.00000000	     -0.29709362	     -0.26652171	     -3.16748021	     -0.55173256	     -0.35447388	     -3.36544772	     -0.48809510	     -0.64802089	     -3.36544772	     -0.33954830	     -0.64802089	     -2.77154518	     -0.27588113	     -0.54349108	     -2.57357767	     -0.16975929	     -0.41284213	     -2.37561016	     -2.12211000	     -3.01494691	    -17.61657467	      0.00000000	      0.00000000	      8.35099065	      7.80390695	      1.71749688	     48.41607328	     -8.80260818	     98.96946806	      0.71917861	      0.61661115	     58.87052761	    -24.28574473	     10.43291325	     -0.67606617	    171.43272003	      0.29860813	      5.61461905	    -23.60670001	    -12.00917916
